<svg width="2107" height="2650" viewBox="0 0 2107 2650" fill="none" xmlns="http://www.w3.org/2000/svg">
<mask id="mask0_748_34" style="mask-type:alpha" maskUnits="userSpaceOnUse" x="0" y="0" width="2107" height="2650">
<path d="M99.0936 858.132C231.002 593.945 548.264 268.429 690.407 138.694C889.406 -32.3201 1082.72 -8.73198 1219.18 20.7532C1355.64 50.2384 1662.66 262.532 1850.29 516.104C2037.92 769.676 2100.46 840.441 2106.15 1164.78C2110.7 1424.25 2039.82 1725 2003.81 1842.94C1952.63 2015.92 1813.9 2399.62 1668.35 2550.58C1486.41 2739.29 1321.52 2609.55 1293.09 2550.58C1270.35 2503.4 1113.05 2405.12 1037.24 2361.88C982.274 2342.22 793.888 2259.27 480.037 2084.72C166.186 1910.16 46.0273 1654.23 25.1794 1548.08C-5.14439 1428.18 -32.8148 1122.32 99.0936 858.132Z" fill="url(#paint0_linear_748_34)"/>
</mask>
<g mask="url(#mask0_748_34)">
<path d="M-118.723 1168.4L-73.9093 1549.01L200.273 1080.16L159.77 924.126C126.192 933.414 -39.8831 1090.84 -118.723 1168.4Z" fill="#9D4611" stroke="#9D4611" stroke-width="13"/>
<path d="M-118.73 1168.39C-133.166 904.804 -29.2293 750.626 4.64336 707.809L73.4983 973.072C12.9936 1028.83 -110.159 1145.96 -118.73 1168.39Z" fill="#AB4618" stroke="#AB4618" stroke-width="13"/>
<path d="M161.568 480.441L444.079 494.282L986.79 678.65L71.4799 965.268C48.4302 888.024 2.79474 728.39 4.65012 707.808C6.50545 687.226 110.035 547.654 161.568 480.441Z" fill="#251A14" stroke="#251A14" stroke-width="13"/>
<path d="M452.467 491.961C496.472 439.652 733.464 280.446 846.46 207.382C778.153 166.069 655.137 140.447 602.167 132.799C514.157 237.417 465.696 415.831 452.467 491.961Z" fill="#662917" stroke="#662917" stroke-width="13"/>
<path d="M1166.63 -14.967C1332.21 -35.678 1803.42 185.19 1843.07 199.308L1884.72 463.734L1363.43 223.268C1342.14 168.953 1172.99 55.7447 1091.08 5.93029L1166.63 -14.967Z" fill="#D59825" stroke="#D59825" stroke-width="13"/>
<path d="M2086.78 340.949C2122.57 397.945 2196.63 514.595 2206.59 525.221L1891.09 453.609L1845.1 207.109L2086.78 340.949Z" fill="#C37012" stroke="#C37012" stroke-width="13"/>
<path d="M2196.16 519.741L2316.82 845.932L1900.03 626.736L1884.71 463.733L2196.16 519.741Z" fill="#8C3017" stroke="#8C3017" stroke-width="13"/>
<path d="M2308.43 848.254L1898.01 618.934L1965.95 1227.29L2313.92 938.718L2308.43 848.254Z" fill="#843612" stroke="#843612" stroke-width="13"/>
<path d="M1972.03 1250.7L1888.77 479.337L1484.1 549.458L1640.07 907.692L1565.95 1003.45L1972.03 1250.7Z" fill="#E1932E" stroke="#E1932E" stroke-width="13"/>
<path d="M1629.65 902.213C1639.6 912.838 1596.93 972.584 1574.35 1001.13L980.418 688.774L1371.83 220.946L1895.14 469.214L1484.1 549.459C1528.46 662.616 1619.69 891.588 1629.65 902.213Z" fill="#FFF07E" stroke="#FFF07E" stroke-width="13"/>
<path d="M410.627 1682.57C546.062 1915.48 819.016 2382.4 827.352 2386.78C299.699 2156.44 -53.3648 1593.5 -61.4653 1562.29C-67.9458 1537.33 250.562 1632.08 410.627 1682.57Z" fill="#896F56" stroke="#896F56" stroke-width="13"/>
<path d="M-78.262 1566.94C-5.20332 1432.45 153.189 1148.37 202.29 1087.96L410.619 1682.57L-78.262 1566.94Z" fill="#39251A" stroke="#39251A" stroke-width="13"/>
<path d="M165.842 947.528L967.972 675.491L406.574 1666.97L165.842 947.528Z" fill="#3E2318" stroke="#3E2318" stroke-width="13"/>
<path d="M978.392 680.972C1156.2 776.731 1522.65 975.29 1565.95 1003.45L1272.63 1745.18L406.574 1666.97L978.392 680.972Z" fill="#A75718" stroke="#A75718" stroke-width="13"/>
<path d="M2310.69 1307.54C2294.46 1439.13 2080.31 1794.93 1982.64 1950.17L1976.37 1232.77L2310.69 1307.54Z" fill="#5F2415" stroke="#5F2415" stroke-width="13"/>
<path d="M1281.02 1742.86C1502.96 1581.13 1949.85 1248.47 1970 1242.89L1980.32 1975.89L1621.24 3053.56L1281.02 1742.86Z" fill="#332019" stroke="#332019" stroke-width="13"/>
<path d="M835.749 2384.46L419.024 1680.25L1264.24 1747.5L1602.44 3050.4C1613.78 3094.09 1096.04 2624.65 835.749 2384.46Z" fill="#EDE3CA" stroke="#EDE3CA" stroke-width="13"/>
<path d="M2301.18 958.964L1970 1242.89C2076.62 1260.79 2295.29 1296.75 2317.06 1297.41C2338.82 1298.08 2315.54 1072.06 2301.18 958.964Z" fill="#7E3912" stroke="#7E3912" stroke-width="13"/>
<path d="M1565.95 1003.45L1963.63 1253.02L1272.62 1745.18L1565.95 1003.45Z" fill="#8C421B" stroke="#8C421B" stroke-width="13"/>
<path d="M161.559 480.443C302.615 247.43 507.123 147.939 591.744 127.32C515.31 248.805 462.797 427.783 446.095 502.085L161.559 480.443Z" fill="#AA3F0B" stroke="#AA3F0B" stroke-width="13"/>
<path d="M882.063 205.895L1063.87 5.09249C1167.61 16.5358 1306.8 155.31 1363.43 223.266L1350.69 243.514L882.063 205.895Z" fill="#BD582A" stroke="#BD582A" stroke-width="13"/>
<path d="M583.354 129.64L1063.87 5.09247L856.881 212.861L583.354 129.64Z" fill="#DF7F07" stroke="#DF7F07" stroke-width="13"/>
<path d="M978.39 680.972C803.758 620.569 452.409 498.667 444.073 494.283L863.251 202.739L1359.09 241.193L978.39 680.972Z" fill="#CE7B1D" stroke="#CE7B1D" stroke-width="13"/>
</g>
<path d="M420.369 1042.67C508.001 872.788 718.771 663.464 813.202 580.038C945.405 470.067 1073.83 485.235 1164.49 504.196C1255.14 523.156 1459.11 659.672 1583.76 822.732C1708.41 985.792 1749.96 1031.3 1753.73 1239.86C1756.76 1406.72 1709.67 1600.11 1685.74 1675.95C1651.75 1787.19 1559.58 2033.93 1462.89 2131.01C1342.02 2252.35 1232.48 2168.93 1213.59 2131.01C1198.48 2100.67 1093.98 2037.47 1043.61 2009.66C1007.1 1997.02 881.948 1943.68 673.445 1831.43C464.941 1719.18 385.115 1554.61 371.265 1486.35C351.119 1409.24 332.737 1212.56 420.369 1042.67Z" fill="black" stroke="black" stroke-width="13"/>
<path d="M1087.58 887.862H993.398L1249.39 1474.66H725.336L768.806 1559.17H1382.21L1087.58 887.862Z" fill="white"/>
<path d="M812.275 1411.87L773.635 1329.77H1017.55L904.044 1073.8L959.589 989.283L1147.96 1411.87H812.275Z" fill="white"/>
<path d="M1087.58 887.862H993.398L1249.39 1474.66H725.336L768.806 1559.17H1382.21L1087.58 887.862Z" stroke="white" stroke-width="2"/>
<path d="M812.275 1411.87L773.635 1329.77H1017.55L904.044 1073.8L959.589 989.283L1147.96 1411.87H812.275Z" stroke="white" stroke-width="2"/>
<defs>
<linearGradient id="paint0_linear_748_34" x1="1053.18" y1="0" x2="1053.18" y2="2649.15" gradientUnits="userSpaceOnUse">
<stop stop-color="#B69E74"/>
<stop offset="1" stop-color="#A68953"/>
</linearGradient>
</defs>
</svg>
